<svg width="522" height="523" viewBox="0 0 522 523" fill="none" xmlns="http://www.w3.org/2000/svg">
<path d="M485.747 132.299C487.52 135.522 481.38 124.893 485.38 131.995C484.521 130.528 483.642 129.062 482.756 127.614C482.576 127.22 482.388 126.816 482.205 126.422C483.41 128.363 484.588 130.317 485.747 132.299C485.747 132.299 485.747 132.299 485.747 132.299ZM487.833 134.707C486.692 132.937 483.31 127.203 486.794 133.499C487.119 133.972 487.449 134.458 487.771 134.934C488.96 137.137 490.12 139.364 491.242 141.595C491.674 142.382 492.101 143.171 492.525 143.964C492.968 145.022 493.4 146.075 493.829 147.139C493.391 146.222 492.942 145.295 492.494 144.384C490.612 140.838 488.935 137.694 486.225 132.964C486.445 133.389 486.664 133.816 486.882 134.242C485.553 131.818 484.186 129.418 482.788 127.051C484.057 129.073 485.443 131.359 486.566 133.27C484.941 130.113 481.637 124.797 479.845 122.074C477.412 118.368 478.005 119.176 476.155 116.458C475.857 116.025 475.784 116.003 475.197 115.146C472.275 110.79 466.165 102.657 469.821 107.353C474.925 114.305 479.093 120.379 483.451 127.644C482.396 125.668 484.801 129.418 487.833 134.707ZM373.958 27.9286C376.347 29.0015 381.086 31.433 384.225 33.1963C384.229 33.1983 384.232 33.2002 384.236 33.2022C384.928 33.588 386.465 34.5252 384.192 33.2838C380.484 31.279 378.718 30.2427 376.695 29.3301C375.815 28.8714 374.887 28.3973 373.958 27.9286ZM365.63 24.0837C363.267 23.0157 364.393 23.3786 367.345 24.7295C367.345 24.7294 367.345 24.7293 367.345 24.7292C368.572 25.3015 366.127 24.2602 370.568 26.2174C371.439 26.6942 372.295 27.164 373.15 27.6431C372.08 27.1306 371.101 26.6698 369.971 26.1464C370.775 26.4046 367.989 25.1563 365.63 24.0837ZM467.141 103.889C466.816 103.624 467.867 104.972 469.543 107.343C467.915 105.139 466.249 102.957 464.56 100.815C465.43 101.836 466.285 102.853 467.141 103.889ZM499.587 159.363C499.588 159.366 499.59 159.37 499.591 159.374C499.96 160.196 500.324 161.02 500.678 161.831C500.853 162.339 501.024 162.842 501.196 163.351C502.425 166.273 503.609 169.24 504.734 172.217C504.514 171.884 502.524 166.536 501.257 163.668C499.523 159.349 498.639 157.265 498.603 156.952C498.933 157.751 499.259 158.549 499.587 159.363ZM6.52401 314.447C6.76825 315.486 7.01589 316.51 7.27238 317.543C6.9814 316.159 6.69939 314.776 6.43151 313.379C5.58741 309.758 5.61534 309.397 4.78376 304.58C2.53108 289.805 2.85045 293.695 1.96018 280.245C2.82848 291.048 2.62754 286.881 3.45404 293.376C3.53353 294.735 2.60349 288.306 3.07801 292.681C4.06521 300.177 5.2953 307.375 7.07628 315.563C7.0385 315.32 7.00135 315.077 6.96426 314.834C6.68195 313.524 6.41655 312.245 6.15623 310.941C6.46336 312.342 6.77293 313.699 7.11039 315.129C6.64784 313.336 7.6712 317.936 7.45175 317.338C7.34937 317.073 6.85354 315.05 6.56988 313.851C7.18528 316.967 7.87639 320.143 8.6132 323.253C8.18859 321.652 7.77913 320.046 7.38683 318.444C7.0899 317.12 6.80547 315.803 6.52872 314.472C6.52716 314.464 6.52558 314.455 6.52401 314.447ZM507.861 341.529C506.737 345.393 504.298 352.26 502.775 355.798C504.615 351.079 506.302 346.345 507.861 341.529ZM498.545 156.644C498.714 157.067 498.876 157.477 499.043 157.901C498.212 156.071 497.356 154.241 496.484 152.435C496.366 152.066 496.242 151.689 496.117 151.31C496.944 153.073 497.757 154.859 498.545 156.644ZM420.187 56.4956C421.347 57.3969 421.45 57.4771 422.876 58.6219C422.874 58.6206 422.873 58.6193 422.871 58.6179C423.448 59.0576 428.11 62.9378 427.56 62.5419C425.251 60.6065 422.756 58.588 420.324 56.6943C420.266 56.6179 420.264 56.5864 420.187 56.4956ZM446.598 80.1073C446.601 80.1103 446.604 80.1133 446.607 80.1163C447.369 80.9043 448.082 81.6592 448.861 82.4793C446 79.5814 445.619 79.0535 442.969 76.4703C440.306 73.9005 438.604 72.3756 436.389 70.1448C437.264 70.9183 438.206 71.7522 439.098 72.5595C442.869 76.22 443.902 77.1869 446.898 80.1537C446.798 80.1376 446.699 80.1232 446.598 80.1073ZM1.75094 248.162C1.7311 247.151 1.86587 246.032 1.87378 245.916C1.87374 245.918 1.8737 245.92 1.87366 245.922C2.41345 237.03 1.78457 247.067 2.45113 238.705C2.36066 239.948 2.28153 241.173 2.20949 242.408C2.03654 244.316 1.87679 246.289 1.75094 248.162ZM158.399 22.9859C158.483 22.9723 158.581 22.9524 158.664 22.939C154.03 24.9446 152.901 25.5629 149.088 27.2883C152.158 25.7948 155.262 24.3603 158.399 22.9857C158.399 22.9857 158.399 22.9858 158.399 22.9859ZM399.471 41.7684C404.217 44.7315 407.66 47.0349 412 50.2063C412.003 50.2088 412.007 50.2113 412.01 50.2138C412.26 50.3967 411.015 49.5614 411.338 49.805C412.245 50.4423 413.179 51.1037 414.087 51.7585C414.19 51.8757 414.286 51.9889 414.388 52.106C411.854 50.2344 409.283 48.4064 406.669 46.6193C407.044 46.8985 407.428 47.185 407.802 47.4661C405.58 45.9519 403.352 44.4837 401.088 43.0407C401.903 43.498 402.715 43.9586 403.516 44.4181C402.177 43.5232 400.827 42.6392 399.471 41.7684ZM87.7995 67.849C88.4764 67.274 87.2755 68.3971 88.3166 67.4934C89.3561 66.5879 91.2474 64.8899 90.8394 65.3286C89.4434 66.5515 87.9921 67.8521 86.5982 69.1288C91.1704 65.1159 95.7948 61.1811 95.9571 61.231C91.4345 64.9248 87.8436 68.1112 83.7392 71.9951C83.824 71.7457 87.9314 67.855 85.2334 70.1828C86.0751 69.407 86.9644 68.5978 87.7904 67.8575C87.7934 67.8547 87.7964 67.8519 87.7995 67.849ZM520.683 235.197C521.046 238.62 521.679 246.609 521.756 250.975C521.79 252.05 521.682 255.65 521.649 255.632C521.558 255.528 521.429 251.143 521.489 255.842C521.454 254.26 521.404 252.729 521.342 251.166C521.291 251.448 521.24 251.729 521.188 252C521.265 253.903 521.323 255.814 521.359 257.727C521.34 257.821 521.321 257.915 521.302 258.01C521.167 251.14 521.172 255.196 520.988 251.646C521.073 254.913 521.097 258.218 521.06 261.5C521.066 259.606 521.042 257.377 521.01 255.715C520.906 255.494 520.995 259.463 520.97 260.147C520.987 263.956 520.566 244.523 520.113 242.93C520.316 246.037 520.471 249.303 520.562 252.464C520.512 251.556 520.457 250.637 520.398 249.731C520.183 242.511 519.552 234.464 518.479 226.117C518.373 225.367 518.263 224.616 518.152 223.879C518.137 224.105 518.12 224.319 518.104 224.545C517.937 223.413 517.763 222.281 517.579 221.142C518.233 224.466 517.588 219.815 516.661 214.245C517.264 217.186 517.812 220.865 517.871 220.596C516.209 210.395 513.677 198.603 510.762 188.969C510.032 186.584 509.957 186.637 508.177 181.044C508.252 181.229 508.288 181.253 508.345 181.37C505.116 171.773 502.904 166.037 498.753 156.368C498.956 156.943 499.152 157.51 499.351 158.086C500.264 160.13 501.148 162.176 502.001 164.225C502.484 165.668 501.667 163.574 504.057 169.795C505.962 174.917 504.858 171.855 505.392 173.24C506.102 175.116 506.624 176.799 507.346 178.837C507.896 180.417 507.407 178.67 508.729 182.833C508.118 181.183 507.477 179.51 506.83 177.868C506.505 176.856 506.178 175.854 505.842 174.848C506.221 175.852 506.588 176.842 506.955 177.852C505.698 174.284 504.441 170.94 502.982 167.304C503.558 168.447 502.05 164.692 501.193 162.674C499.861 159.529 501.065 162.198 500.183 160.138C499.29 158.076 498.248 155.888 496.563 152.206C497.524 154.154 496.327 151.454 496.612 151.951C496.903 152.445 498.694 156.343 497.028 152.574C493.617 145.43 497.125 153.272 494.793 148.463C491.937 142.703 491.446 141.238 492.397 142.903C493.144 144.212 495.439 148.884 496.121 150.235C492.165 141.813 491.844 141.884 491.099 140.482C488.256 135.461 490.438 138.685 486.977 132.778C487.098 132.857 487.201 132.918 487.32 132.999C486.724 131.978 486.319 131.306 485.59 130.08C487.592 133.783 485.876 130.796 484.975 129.278C483.554 126.886 485.693 130.613 485.302 129.989C484.262 128.295 482.644 125.605 483.595 127.281C483.172 126.528 482.704 125.712 482.258 124.942C480.534 122.178 476.121 115.944 480.119 122.01C479.67 121.493 478.439 119.491 477.435 117.958C476.431 116.425 476.396 116.491 475.498 115.151C471.886 109.85 474.368 113.233 475.02 114.02C470.074 107.137 474.946 113.85 467.629 104.079C466.861 103.182 470.207 107.722 467.337 104.005C466.901 103.25 464.91 100.417 460.632 95.2048C460.191 94.7201 459.749 94.2387 459.305 93.7576C456.994 90.8918 458.347 92.2038 453.701 87.2184C456.328 89.775 454.576 87.9707 450.485 83.4376C449.651 82.5195 451.652 84.5711 450.487 83.2901C449.958 82.7094 448.618 81.3539 447.302 79.9599C446.665 79.2747 443.657 76.0915 441.432 74.03C442.945 75.6631 438.728 71.7461 442.206 75.2475C435.663 68.8962 430.803 64.7476 438.476 71.5022C436.81 69.8931 435.121 68.3048 433.412 66.7405C432.184 65.6924 430.936 64.6464 429.68 63.6137C429.552 63.3864 429.796 63.4758 424.865 59.4576C427.022 61.1772 429.147 62.9269 431.259 64.723C431.343 64.7684 431.649 65.005 431.592 64.9289C429.033 62.6924 421.6 56.6773 419.719 55.3189C417.866 53.9264 421.406 56.6659 420.86 56.2812C416.327 53.0591 416.765 53.2121 413.529 50.8854C411.625 49.5286 416.123 52.8358 415.105 52.1076C411.345 49.3942 409.647 48.0653 406.24 45.7518C407.415 46.6245 408.573 47.5018 409.703 48.3737C406.169 45.8934 402.161 43.2485 398.747 41.1399C397.407 40.313 398.391 40.985 398.171 40.8516C397.085 40.1777 392.629 37.5298 392.149 37.2633C388.575 35.1882 388.505 35.0716 384.981 33.132C386.371 33.8818 387.671 34.5984 389.016 35.3546C389.681 35.6042 390.357 35.8637 391.02 36.1188C387.611 34.1384 384.15 32.2325 380.648 30.4062C383.195 31.7694 385.726 33.1788 388.23 34.6285C384.242 32.4899 380.221 30.4683 376.133 28.544C374.048 27.4502 371.965 26.3929 369.856 25.3581C364.041 22.7275 365.111 23.4874 362.405 22.105C360.668 21.3864 358.925 20.6874 357.172 20.0062C357.432 20.0797 357.689 20.1526 357.949 20.2269C355.839 19.3969 353.717 18.594 351.581 17.8183C353.786 18.7438 355.928 19.6861 358.078 20.6569C353.933 19.0224 353.869 18.9411 353.257 18.6787C351.625 17.9923 348.312 16.8667 347.007 16.3607C346.569 16.1808 350.695 17.6008 349.301 17.0327C349.035 16.9129 343.597 14.738 340.002 13.6699C340.056 13.7316 340.316 13.8692 340.446 13.9597C335.645 12.4541 333.248 11.5706 333.903 11.6883C331.324 10.9732 327.532 9.96332 326.98 9.89406C325.647 9.54724 324.343 9.21892 323.013 8.89528C324.439 9.06575 318.883 7.7655 318.481 7.83701C320.776 8.3583 323.061 8.91074 325.332 9.49228C323.552 9.27237 330.51 10.9197 316.065 7.43564C313.304 6.73864 321 8.53998 318.751 7.97312C314.828 7.04364 311.125 6.32942 307.377 5.58959C302.7 4.71967 308.491 5.51091 297.516 3.95497C321.616 8.18583 294.239 3.12514 282.749 2.55687C279.979 2.1176 272.099 1.35796 261 1.38706C259.561 1.39149 258.072 1.40965 256.539 1.44392C257.36 1.47027 259.158 1.45065 261 1.45289C262.287 1.45359 263.589 1.46384 264.587 1.48694C267.012 1.54942 264.39 1.54009 267.406 1.63615C270.42 1.72192 276.802 2.06986 279.854 2.35738C277.254 2.13695 264.543 1.75458 272.949 1.97416C268.266 1.72086 265.421 1.61037 261 1.57229C259.508 1.56289 257.839 1.56748 255.867 1.6022C253.529 1.77773 253.706 1.75992 246.119 2.14974C250.623 1.74964 241.949 2.13908 243.848 1.87823C249.257 1.59046 246.255 1.91717 249.363 1.83621C249.679 1.81834 254.693 1.60851 255.867 1.6022C250.787 1.5797 249.042 1.63742 252.15 1.35386C248.569 1.48928 246.34 1.60811 246.012 1.70135C245.259 1.71071 244.503 1.72355 243.763 1.73853C242.593 1.81608 241.542 1.89443 240.306 1.99073C242.018 1.9757 238.71 2.15004 236.382 2.42657C234.049 2.71399 237.209 2.45235 230.768 3.16084C232.914 2.94009 234.884 2.76029 236.947 2.5964C232.828 3.00368 228.64 3.51919 224.54 4.12525C227.432 3.76667 233.752 3.16324 233.592 3.28661C231.668 3.42867 225.167 4.31561 224.465 4.43698C221.723 4.83983 223.21 4.56848 223.002 4.5961C218.681 5.19932 215.126 5.86079 213.485 6.07391C210.27 6.7131 207.845 7.1793 204.436 7.93426C202.565 8.35445 202.944 8.33835 201.849 8.57847C194.604 10.2902 201.422 8.2969 187.609 12.3209C189.289 11.8742 190.954 11.4512 192.647 11.0379C191.083 11.4814 189.535 11.9366 187.984 12.4084C186.941 12.7051 185.91 13.0053 184.872 13.3146C184.865 13.2134 184.863 13.1106 184.856 13.0094C183.72 13.3514 182.57 13.7067 181.432 14.0666C183.384 13.4294 185.333 12.8184 187.29 12.2304C187.464 12.1609 187.627 12.0951 187.801 12.0259C184.882 12.8528 181.979 13.7305 179.081 14.6634C179.036 14.7144 178.992 14.7654 178.948 14.8164C172.446 16.9749 172.29 17.0082 166.238 19.4343C161.569 21.2628 157.879 23.0172 155.255 24.2539C154.298 24.6602 153.342 25.0724 152.38 25.4947C151.787 25.7993 151.19 26.1089 150.601 26.4178C149.391 26.943 148.17 27.4848 146.964 28.031C146.344 28.4451 146.006 28.5994 150.664 26.4221C149.11 27.235 140.953 31.2276 137.719 32.9862C135.246 34.2984 137.931 32.7309 137.618 32.8894C136.565 33.4016 132.547 35.685 131.71 36.1717C128.144 38.1975 125.692 39.69 122.543 41.6469C121.929 42.0264 120.2 43.0651 120.056 43.158C118.929 43.8679 116.176 45.6647 115.868 45.8768C100.057 56.943 116.924 45.0919 102.506 55.7515C102.952 55.4502 103.364 55.1765 103.803 54.885C102.727 55.7075 101.646 56.547 100.583 57.3859C99.2202 58.4294 100.81 57.092 98.1745 59.2556C98.321 59.0838 98.4685 58.9115 98.6248 58.7329C97.4813 59.6789 96.3882 60.5993 95.2335 61.5869C93.2784 62.965 86.7213 68.6921 87.0845 68.1716C87.1909 67.9762 91.7947 63.8554 89.2993 65.9617C87.3025 67.709 88.6941 66.5716 87.8874 67.2928C82.1027 72.5493 82.4178 72.2245 80.1205 74.4449C79.7878 74.8244 79.4382 75.2237 79.0999 75.6135C78.2307 76.4472 77.3645 77.2894 76.4986 78.1434C76.3204 78.3623 76.1344 78.5898 75.9571 78.8092C76.7553 78.0029 77.6607 77.1016 78.4033 76.3721C77.3828 77.4082 68.2461 87.1054 71.6735 83.3535C73.0597 81.816 75.7187 79.1127 73.9575 80.7426C71.4894 83.3195 68.749 86.3025 66.2753 89.1258C66.1771 89.1951 66.0843 89.2583 65.9862 89.3278C62.6654 93.1478 65.7773 89.7535 65.8172 89.802C65.0539 90.6715 64.2883 91.5551 63.5366 92.4348C63.1971 92.79 62.8734 93.1267 62.5213 93.5023C62.5263 93.5682 62.1678 94.1144 59.9474 96.7526C58.5285 98.4557 60.6435 95.6751 57.9972 98.9731C58.251 98.7713 59.251 97.6168 56.3486 101.324C56.0056 101.649 55.5583 102.12 55.2789 102.363C51.7622 107.054 50.0869 109.126 46.2393 114.834C43.8018 118.455 40.7385 123.579 39.0474 125.854C37.3815 128.577 37.9705 127.747 37.4967 128.564C35.2781 132.424 33.5702 135.27 33.1603 135.993C30.5708 140.617 29.5315 142.747 27.5542 146.59C27.7022 146.402 27.8008 146.308 27.9272 146.162C29.6317 142.59 30.5334 140.807 33.2133 135.951C32.3209 137.588 31.4508 139.225 30.5961 140.876C30.7728 140.626 30.9485 140.378 31.1204 140.139C39.2878 125.064 37.466 128.64 30.6791 141.292C30.0396 142.354 29.387 143.462 28.7672 144.525C25.1702 152.015 23.4313 155.514 19.8435 164.188C19.4161 165.218 17.9745 169.021 17.3731 170.665C17.3835 170.638 17.394 170.611 17.4044 170.584C17.0901 171.629 17.6348 170.258 17.7561 170.116C17.4303 171.005 17.1072 171.902 16.7929 172.79C16.0362 174.759 16.2303 174.039 14.8911 177.976C15.1163 177.46 15.3408 176.952 15.5692 176.438C14.0891 180.74 13.1274 183.588 11.942 187.643C12.1268 186.956 12.3117 186.277 12.502 185.592C9.85128 194.423 11.6166 187.291 9.88302 194.059C9.7443 194.483 9.60931 194.896 9.47264 195.32C10.1988 192.529 10.9709 189.755 11.7834 187.012C11.7669 186.946 11.752 186.876 11.7323 186.821C10.8615 189.768 10.038 192.75 9.27019 195.739C9.81561 193.553 10.3923 191.365 10.993 189.201C9.9886 192.62 9.04714 196.092 8.18848 199.538C9.21961 195.897 8.05746 200.66 8.40207 199.795C6.8379 205.91 5.59453 210.723 4.106 220.42C3.83035 222.351 4.03983 221.308 3.18112 226.742C3.48169 225.437 2.68844 232.293 2.93923 231.43C3.15242 229.522 3.3985 227.55 3.64405 225.713C3.31628 227.799 3.13785 228.13 3.53815 224.945C4.03886 220.895 5.17241 214.973 4.99603 215.201C5.29225 213.59 5.57911 212.097 5.89335 210.543C5.80046 211.19 5.71279 211.824 5.62682 212.461C6.42096 208.03 7.07076 205.229 7.63849 203.134C6.44992 208.407 5.43642 213.664 4.57902 218.997C4.71406 218.213 4.85449 217.419 4.99638 216.638C4.41498 220.678 5.13398 216.543 4.01218 224.058C3.97808 224.006 3.94262 223.964 3.90835 223.912C3.58909 226.65 2.72004 234.195 3.12552 231.803C2.83084 234.076 2.76247 234.553 2.70252 235.838C2.02461 241.812 1.71204 245.704 1.69749 243.541C1.56785 245.782 1.46615 248.05 1.39558 250.261C1.49018 248.973 1.59414 247.682 1.70857 246.382C1.48187 250.29 1.34325 254.184 1.29063 258.091C1.14277 258.458 1.43551 250.578 1.26926 252.849C1.23111 253.302 1.21928 255.403 1.19816 255.955C0.966096 261.784 1.22809 252.633 1.10243 254.351C0.94812 260.453 0.913898 258.838 0.894592 261.5C0.896241 262.627 0.904758 264.523 1.03077 268.075C1.00466 268.391 0.979117 268.732 0.953714 269.025C1.08574 273.173 1.1533 272.811 1.35493 276.385C1.4887 278.624 1.54956 281.435 1.85177 283.882C1.92138 284.316 1.66718 280.185 2.49743 288.844C3.24021 295.589 2.8174 292.794 3.23861 296.43C3.64413 300.049 5.19121 308.317 5.50705 310.755C5.16925 308.871 4.7496 306.464 4.42158 304.356C4.24463 303.506 4.07577 302.677 3.90894 301.835C4.70051 306.66 5.58551 311.597 6.34076 314.785C7.51997 321.2 9.49045 328.168 9.13879 326.235C8.59525 324.175 9.09531 326.44 8.42193 323.556C8.38291 323.253 8.34039 322.934 8.30246 322.631C9.47992 327.523 10.4477 330.922 9.73739 328.718C9.93746 329.478 10.1389 330.228 10.3456 330.985C10.4557 331.1 10.5619 331.2 10.6721 331.315C10.9311 332.214 11.1958 333.115 11.4642 334.01C11.7377 335.012 12.0175 336.014 12.306 337.023C11.7993 335.705 11.0397 333.407 13.3612 341.041C13.4076 341.051 13.4572 341.071 13.5035 341.081C15.5495 347.449 15.466 347.636 18.4509 355.493C15.9936 349.526 15.1478 346.11 14.873 346.226C14.3653 344.693 13.8677 343.142 13.3882 341.597C13.2729 341.376 13.1585 341.156 13.0474 340.945C15.6212 349.251 21.1852 362.524 23.4817 367.871C23.7892 368.503 24.0978 369.137 24.4166 369.775C26.7039 374.974 28.0115 377.083 30.5451 382.26C30.8254 382.787 29.966 381.823 33.606 388.406C33.5408 388.227 33.5374 388.118 33.4963 387.966C34.2725 389.397 35.0568 390.813 35.8526 392.219C36.0237 392.457 36.2024 392.709 36.3744 392.947C34.981 390.549 33.6287 388.134 32.3105 385.69C33.422 387.712 34.5668 389.731 35.7301 391.72C34.2659 389.094 33.6148 387.903 34.5653 389.448C35.8549 391.717 37.1797 393.967 38.5349 396.192C38.6899 396.412 38.8451 396.63 39.0011 396.85C38.3892 395.742 37.7806 394.624 37.187 393.509C40.6033 399.375 43.8269 404.327 46.6914 408.685C47.1869 409.423 45.316 406.895 48.8488 411.816C48.8717 411.915 48.9406 412.065 48.9729 412.171C53.3944 418.122 54.8431 420.087 59.6451 426.145C56.5489 422.211 59.3176 425.717 60.1611 426.673C60.7345 427.332 58.5734 424.697 58.841 424.976C59.1008 425.263 61.9995 428.609 59.6081 425.677C53.6294 418.576 52.2501 416.436 45.4048 406.672C46.4564 408.178 47.5316 409.684 48.614 411.165C48.1322 410.448 47.7037 409.803 47.1896 409.023C50.9669 414.494 49.1403 411.826 50.7595 414.025C52.386 416.219 55.4065 420.168 57.4909 422.762C58.1469 423.58 57.413 422.751 58.8925 424.598C59.8942 425.86 62.775 429.195 63.3739 430.02C63.7675 430.562 59.0268 425.293 65.4161 432.717C66.5864 434.143 63.5107 430.594 63.447 430.515C62.8331 429.916 66.7313 434.512 68.6601 436.521C68.8148 436.684 67.376 435.022 68.9996 436.776C72.8696 440.924 75.1248 443.297 77.6657 445.952C78.0186 446.161 81.4681 449.459 85.8325 453.487C86.0756 453.672 86.3086 453.846 86.5522 454.029C85.8595 453.421 85.1701 452.809 84.4836 452.193C83.7577 451.497 82.9893 450.76 82.2911 450.069C86.657 454.143 87.403 454.577 89.572 456.441C97.088 462.713 92.3674 459.109 90.9854 458.003C90.0384 457.15 89.1314 456.316 88.2067 455.457C88.2889 455.576 88.3725 455.696 88.4461 455.807C99.5446 465.401 89.9608 457.47 95.6207 462.319C97.207 463.41 101.443 466.872 106.997 471.088C107.619 471.545 108.245 472.001 108.871 472.452C108.989 472.507 109.009 472.476 109.189 472.586C116.042 477.439 117.211 478.387 117.848 478.865C120.739 480.901 123.159 482.231 124.045 482.78C127.789 485.078 128.847 485.78 132.488 487.835C136.42 490.016 133.766 488.463 134.981 489.091C135.957 489.599 139.073 491.278 140.389 491.919C139.86 491.676 139.275 491.4 138.749 491.154C142.834 493.372 146.23 495.133 151.006 497.384C156.497 499.708 161.061 501.984 159.276 500.907C154.673 498.917 152.155 497.697 149.769 496.486C152.738 497.883 155.738 499.226 158.766 500.512C159.636 500.921 160.249 501.215 161.281 501.682C163.564 502.572 168.854 504.675 170.969 505.416C180.844 508.833 177.834 507.682 186.887 510.696C180.312 508.715 180.264 508.803 173.83 506.549C175.19 507.114 178.481 508.219 176.329 507.573C182.6 509.667 180.606 508.894 183.078 509.619C185.208 510.239 189.487 511.481 189.269 511.335C189.696 511.5 190.025 511.635 190.452 511.798C194.58 512.959 198.72 514.013 202.891 514.965C201.102 514.601 199.32 514.219 197.544 513.818C198.875 514.168 200.212 514.509 201.551 514.838C211.816 517.297 229.771 519.989 226.945 519.225C231.977 519.855 232.626 519.939 235.359 520.283C235.662 520.287 235.958 520.294 236.262 520.294C239.508 520.625 242.022 520.718 244.91 520.922C247.803 521.119 248.509 521.23 248.935 521.099C250.793 521.228 252.646 521.33 254.504 521.416C255.627 521.409 256.75 521.395 257.863 521.373C258.906 521.396 259.953 521.413 261 521.424C261.718 521.432 262.436 521.436 263.152 521.438C264.097 521.377 270.997 521.26 274.008 521.036C276.895 520.952 276.853 521.261 283.615 520.669C283.435 520.622 283.258 520.576 283.078 520.529C284.627 520.412 286.172 520.281 287.728 520.135C287.823 520.146 287.906 520.157 288.001 520.167C287.206 520.243 286.433 520.313 285.642 520.381C286.331 520.351 287.003 520.319 287.68 520.284C290.048 519.992 292.409 519.668 294.767 519.312C291.582 519.686 288.34 520.007 285.164 520.262C289.151 519.844 291.983 519.561 295.443 519.057C298.473 518.732 297.366 518.93 296.152 519.19C297.273 519.03 298.405 518.862 299.522 518.688C298.794 518.876 300.711 518.706 294.14 519.571C294.596 519.539 295.061 519.504 295.505 519.473C296.582 519.325 297.283 519.251 298.46 519.072C301.657 518.584 304.118 517.999 303.883 517.982C303.762 517.977 300.595 518.538 300.714 518.473C301.021 518.317 308.288 517.254 297.797 518.742C301.252 518.175 302.055 518.104 305.884 517.468C305.579 517.487 305.282 517.503 304.989 517.519C306.766 517.232 308.541 516.926 310.306 516.602C307.889 517.267 320.901 514.744 309.225 517.209C312.686 516.569 316.149 515.854 319.584 515.072C318.881 515.253 318.176 515.43 317.471 515.604C315.914 515.939 314.353 516.26 312.795 516.565C314.634 516.227 316.487 515.865 318.321 515.487C322.631 514.467 324.286 513.967 326.225 513.393C321.231 514.596 322.88 514.264 318.977 515.19C319.103 515.111 318.913 515.108 319.243 514.98C321.294 514.64 327.816 512.921 329.331 512.48C333.928 511.192 330.35 512.295 333.42 511.423C336.487 510.543 340.062 509.363 342.576 508.634C342.514 508.596 342.297 508.607 342.104 508.617C346.818 507.031 345.888 507.386 346.38 507.232C354.161 504.628 358.292 502.916 366.889 499.118C365.792 499.589 364.68 500.059 363.566 500.52C370.011 497.553 365.673 499.579 359.982 501.897C365.306 499.703 368.281 498.232 371.941 496.479C375.612 494.738 381.847 491.595 384.095 490.405C378.999 493.226 373.332 496.001 367.438 498.668C368.133 498.417 368.805 498.165 369.521 497.904C373.047 496.148 375.125 495.202 376.299 494.641C379.733 492.978 379.572 492.93 381.666 491.964C381.566 491.974 381.49 491.978 381.391 491.99C388.379 488.374 395.712 484.081 399.959 481.205C400.403 481.031 400.747 480.915 401.25 480.702C404.021 478.844 406.427 477.315 408.733 475.703C411.02 474.092 410.11 474.648 412.768 472.714C413.258 472.355 414.312 471.65 415.495 470.732C416.701 469.82 420.971 466.226 421.621 465.976C423.837 464.234 425.909 462.56 428.028 460.787C425.974 462.527 423.895 464.232 421.799 465.9C423.633 464.523 425.436 463.132 427.235 461.706C427.43 461.482 427.624 461.257 427.809 461.041C432.5 457.021 435.896 454.095 440.408 449.788C441.155 449.064 439.329 450.707 442.663 447.511C445.968 444.287 448.542 442.001 453.802 436.137C454.067 435.84 455.533 434.025 457.451 431.957C457.889 431.487 456.137 433.543 457.126 432.452C458.134 431.375 462.383 426.346 462.743 425.977C462.681 426.017 462.402 426.319 462.258 426.458C462.961 425.583 463.667 424.694 464.366 423.801C464.464 423.744 464.567 423.681 464.665 423.624C468.587 418.484 470.527 415.769 476.008 407.921C474.441 410.112 472.84 412.276 471.216 414.404C470.816 415.024 470.413 415.644 470.015 416.251C467.375 419.783 464.637 423.258 461.823 426.649C461.399 427.239 460.981 427.818 460.551 428.405C459.795 429.299 459.041 430.178 458.273 431.061C458.438 430.817 458.604 430.57 458.775 430.317C457.277 432.083 455.755 433.831 454.219 435.548C457.236 431.957 462.769 425.624 462.239 425.975C462.918 425.187 463.593 424.394 464.263 423.598C464.481 423.188 465.83 421.56 468.099 418.6C467.55 419.255 466.943 419.978 466.431 420.572C468.713 417.752 472.512 412.572 474.657 409.489C475.603 408.139 474.715 409.528 475 409.128C476.473 407.084 479.028 403.02 479.573 402.174C482.856 397.14 485.053 393.901 488.158 388.114C484.79 393.991 486.615 390.79 485.348 392.839C484.951 393.481 480.438 400.962 486.036 391.56C486.848 390.543 496.135 372.973 493.222 378.82C494.644 375.932 495.706 373.643 496.916 370.961C500.162 364.522 498.873 366.676 497.892 368.53C498.378 367.454 498.833 366.426 499.32 365.311C498.462 367.753 503.626 355.649 505.01 351.38C505.505 349.964 504.01 353.88 505.186 350.621C505.76 349.08 506.396 347.326 506.97 345.682C506.062 348.039 507.63 343.341 507.507 343.372C508.586 340.394 509.47 338.121 509.045 339.818C509.796 337.304 510.507 334.782 511.18 332.249C510.828 333.413 510.464 334.589 510.095 335.746C512.656 327.569 514.918 316.807 515.455 315.079C515.688 313.962 515.913 312.846 516.129 311.734C516.162 311.384 516.193 311.046 516.225 310.695C517.218 305.674 518.065 300.594 518.758 295.528C518.169 300.054 518.06 301.131 517.225 305.864C517.577 304.05 517.917 302.185 518.224 300.402C519.117 293.275 519.276 292.232 520.215 281.455C520.285 280.974 520.852 272.753 520.841 272.489C520.933 271.21 520.911 273.157 520.954 272.587C521.126 271.019 521.422 261.324 521.405 261.503C522.131 263.916 520.095 296.469 518.053 305.105C503.403 395.74 438.259 473.752 352.919 505.499C352.043 505.829 352.439 505.721 352.065 505.863C349.744 506.74 347.444 507.485 346.578 507.782C344.73 508.415 345.765 508.118 344.414 508.577C330.435 513.277 316.839 516.591 302.276 518.933C301.323 519.084 302.289 518.89 300.617 519.155C299.76 519.293 297.079 519.754 295.128 520.007C288.293 520.891 282.58 521.41 275.312 521.817C271.37 522.042 265.46 522.21 261 522.199C260.991 522.199 260.982 522.199 260.973 522.199C259.004 522.2 256.958 522.207 255.024 522.165C252.28 522.098 252.844 522.043 252.422 522.027C250.575 521.948 250.317 522.006 248.567 521.925C245.305 521.757 245.113 521.709 240.974 521.413C238.018 521.212 231.26 520.582 227.543 520.094C218.893 518.968 208.022 516.968 200.084 515.051C195.396 513.924 194.983 513.717 193.075 513.213C186.371 511.396 181.32 509.909 175.155 507.777C166.989 504.924 159.895 501.992 152.271 498.496C151.038 497.926 151.296 498.112 150.088 497.547C145.617 495.463 139.979 492.592 136.135 490.468C131.842 488.091 130.319 487.112 126.203 484.661C125 483.935 124.604 483.788 122.6 482.547C119.397 480.561 116.001 478.225 113.838 476.729C110.882 474.671 113.4 476.536 109.442 473.721C109.28 473.605 108.721 473.138 107.876 472.527C105.424 470.737 105.631 470.966 102.099 468.263C101.75 468.015 97.1584 464.32 96.7153 463.938C94.0243 461.784 88.7766 457.235 87.2634 455.868C81.8384 450.993 86.0074 454.939 81.6 450.571C79.5891 448.723 77.6209 446.861 75.5538 444.831C76.9302 446.188 71.4936 440.535 71.1351 440.115C68.009 436.797 69.7806 438.855 65.9259 434.548C71.1297 440.135 60.9668 428.976 58.9205 426.294C48.6799 413.73 40.4159 401.451 32.5219 387.206C29.8783 382.443 26.5301 375.925 24.1307 370.69C23.569 369.468 24.0272 370.376 23.5365 369.299C23.0498 368.223 23.55 369.435 22.9981 368.204C19.5865 360.53 17.2639 354.385 14.6326 347.174C14.524 346.816 14.5385 346.824 14.3524 346.234C12.1484 340.331 8.92533 328.654 7.917 324.219C6.27296 317.314 5.86228 315.499 4.88745 310.449C3.5733 303.735 2.36666 293.543 2.78745 298.108C2.13215 293.483 1.61522 288.944 1.22756 284.255C1.18456 283.73 1.26577 284.087 1.24886 283.877C1.14407 282.547 1.06646 282.117 0.99623 281.216C0.813584 278.773 1.15213 282.758 0.891594 279.273C0.769315 277.44 0.630332 276.367 0.427317 271.287C0.308019 268.067 0.246316 264.802 0.246246 261.5C0.169106 233.409 5.02756 203.688 14.2862 176.926C14.9955 174.877 14.4759 176.207 15.3869 173.646C18.4601 164.683 25.3693 149.24 29.2205 142.038C33.0001 134.826 32.1047 136.423 34.58 131.962C35.0661 131.104 34.6979 131.825 35.1443 131.053C38.1337 125.865 42.0207 119.851 44.7514 115.846C46.5611 113.192 46.369 113.372 47.6425 111.543C49.5464 108.822 51.6293 106.118 52.6994 104.706C57.7392 98.0774 61.3524 93.632 66.535 87.8365C66.3218 88.0539 66.1786 88.1952 65.9972 88.3785C72.1139 81.4973 78.5839 74.9472 85.39 68.7459C85.0606 69.0288 84.7424 69.3027 84.4142 69.5872C92.427 62.3415 91.6909 63.3727 90.7544 63.7423C91.3433 63.2212 91.9695 62.671 92.5369 62.1785C92.4093 62.4982 97.4231 58.3051 104.087 53.3291C104.571 52.9562 107.773 50.4097 107.52 50.8175C108.357 50.1547 108.856 49.7593 109.568 49.2035C111.03 48.2238 112.521 47.2449 114.002 46.2949C114.781 45.7519 115.575 45.2061 116.359 44.6727C116.457 44.5662 116.347 44.5967 116.582 44.3997C120.222 41.9167 127.952 37.2076 130.984 35.4994C138.475 31.1529 146.317 27.1044 152.475 24.4035C155.458 23.0418 152.453 24.3044 156.922 22.3402C157.441 22.1509 157.93 21.9749 158.473 21.7806C162.086 20.0884 162.877 19.8402 167.986 17.8981C171.455 16.602 173.708 15.7532 177.039 14.6223C177.883 14.3379 177.778 14.4209 178.356 14.2258C180.287 13.556 185.836 11.7619 187.219 11.3707C199.775 7.68554 210.743 5.33806 223.072 3.52984C224.392 3.3409 222.675 3.54351 224.041 3.34968C226.242 3.04519 224.956 3.29213 226.233 3.12258C229.799 2.67299 229.819 2.57961 234.821 2.056C243.051 1.22635 251.956 0.759255 261 0.774931C269.976 0.78409 278.994 1.26943 287.522 2.13671C288.058 2.19123 288.032 2.14655 288.618 2.20741C292.435 2.60608 296.264 3.15714 299.683 3.66627C305.388 4.5249 309.652 5.23485 315.218 6.4013C326.104 8.7259 335.664 11.3935 346.492 15.1293C355.319 18.2166 362.883 21.2475 372.169 25.6061C412.748 44.6632 448.987 75.0127 474.765 112.099C475.422 113.042 475.123 112.68 475.325 112.967C477.232 115.699 477.428 115.927 478.001 116.967C480.358 120.491 481.158 121.57 483.84 125.943C485.248 128.283 484.11 126.587 486.504 130.536C488.599 134.141 486.536 130.029 492.337 140.995C492.486 141.288 493.173 142.751 494.345 145.051C495.507 147.369 494.264 144.641 496.974 150.259C503.324 163.47 509.772 180.943 513.896 197.477C514.204 198.486 516.536 208.523 516.891 210.516C517.668 214.358 517.589 213.537 518.461 218.573C519.113 222.489 519.519 225.679 520.088 230.291C520.15 230.828 520.338 231.72 520.683 235.197ZM10.6235 330.895C10.9494 331.8 11.5901 333.419 13.229 338.956C13.3861 339.482 12.3512 336.699 13.2824 339.763C12.3236 336.78 11.4573 333.87 10.6232 330.895C10.6233 330.895 10.6234 330.895 10.6235 330.895ZM520.517 260.387C520.51 256.032 520.396 251.702 520.177 247.385C520.364 250.367 520.501 253.339 520.587 256.323C520.574 257.679 520.551 259.026 520.517 260.387ZM134.072 34.9598C134.075 34.9578 134.079 34.9557 134.083 34.9537C130.123 37.2113 126.231 39.5677 122.395 42.0308C122.788 41.7562 123.182 41.4819 123.577 41.2094C126.613 39.2708 129.678 37.4019 132.78 35.5978C133.21 35.3842 133.641 35.171 134.072 34.9598ZM166.484 19.3621C169.208 18.3339 168.561 18.6357 170.076 18.1101C170.076 18.11 170.076 18.11 170.076 18.1099C170.476 17.9702 172.328 17.2988 173.042 17.0461C172.769 17.115 172.42 17.2124 172.126 17.2904C178.466 14.8904 191.2 11.071 174.918 16.5737C175.149 16.4558 175.369 16.3422 175.6 16.225C167.539 19.0188 158.724 22.6554 166.484 19.3621ZM37.5564 393.833C41.4149 400.014 42.6576 401.993 47.587 409.331C46.8485 408.323 46.1159 407.308 45.3922 406.291C44.6051 405.062 43.8339 403.835 43.0672 402.593C43.065 402.59 43.0627 402.586 43.0604 402.583C42.8726 402.357 42.6846 402.129 42.5038 401.912C40.8089 399.255 39.1505 396.546 37.5564 393.833ZM428.799 63.1782C430.192 64.677 429.864 64.1559 425.356 60.5019C423.788 59.2466 425.281 60.5133 424.307 59.7306C419.026 55.5363 418.645 55.1411 419.896 55.9871C422.922 58.3226 425.922 60.748 428.789 63.1701C428.792 63.1728 428.795 63.1755 428.799 63.1782ZM515.985 211.322C515.986 211.326 515.987 211.33 515.987 211.334C515.967 211.516 515.428 208.856 515.966 211.87C515.525 209.589 515.049 207.292 514.54 204.999C514.695 205.67 514.849 206.357 514.998 207.031C514.89 206.431 514.779 205.831 514.667 205.233C514.423 204.436 514.299 203.673 513.756 201.282C513.846 201.956 513.933 202.628 514.018 203.303C513.4 200.518 512.741 197.758 512.03 194.988C512.038 194.95 512.045 194.911 512.053 194.872C511.756 193.837 511.456 192.815 511.147 191.786C511.088 191.499 511.032 191.222 510.972 190.936C510.606 189.692 510.23 188.45 509.845 187.215C509.776 186.825 510.629 189.545 509.147 184.714C509.653 186.179 510.145 187.647 510.629 189.137C512.744 196.458 514.527 203.847 515.985 211.322ZM385.292 33.4085C392.625 37.472 390.521 36.3883 388.79 35.5134C387.634 34.8053 386.46 34.0993 385.292 33.4085ZM22.4882 158.314C21.5892 160.583 20.7252 162.854 19.8704 165.191C18.0685 169.799 16.2709 174.434 17.5019 170.906C19.0081 166.667 20.8229 162.363 22.4882 158.314ZM1.31192 268.286C1.226 262.218 1.41788 267.929 1.51966 269.289C1.48618 270.972 1.5651 273.272 1.77466 277.043C1.55216 273.503 1.32736 269.297 1.31168 268.286C1.31176 268.286 1.31184 268.286 1.31192 268.286ZM77.0542 78.1427C78.7668 76.4208 80.483 74.7196 82.0753 73.2422C81.6456 73.7412 78.4825 76.7176 80.7886 74.6344C79.6723 75.7137 78.5643 76.8043 77.4759 77.8952C78.1372 77.1714 77.1808 78.0781 77.0588 78.1384C77.0573 78.1398 77.0557 78.1412 77.0542 78.1427ZM309.163 6.33642C304.5 5.39346 303.578 5.27692 298.832 4.62476C298.166 4.45021 303.862 5.17323 307.395 5.80291C307.981 5.9779 308.568 6.15533 309.163 6.33642ZM481.265 399.065C480.757 400.1 476.179 407.191 473.709 410.591C473.985 410.174 474.261 409.755 474.535 409.337C476.859 405.966 479.104 402.54 481.265 399.065ZM1.88025 278.832C1.84148 278.203 1.80643 277.607 1.77466 277.043C1.81261 277.67 1.84902 278.274 1.88025 278.832ZM130.168 486.327C128.402 485.387 133.506 488.431 127.312 484.73C127.312 484.73 127.312 484.73 127.312 484.73C123.24 482.24 122.349 481.667 118.645 479.253C120.037 480.035 127.592 484.86 117.236 478.119C117.102 478.027 117.332 478.265 115.7 477.156C115.197 476.812 113.605 475.679 111.19 473.955C110.41 473.398 104.554 469.201 112.56 474.889C112.364 474.659 112.841 474.897 112.864 474.823C116.026 476.991 118.387 478.746 121.809 480.923C126.903 484.143 129.638 485.52 130.535 486.28C126.119 483.817 118.787 479.117 117.927 478.373C113.857 475.661 112.652 474.918 115.89 477.187C130.113 486.329 119.613 480.008 132.38 487.507C132.546 487.57 133.091 487.845 133.023 487.777C136.918 490.081 130.789 486.678 130.168 486.327ZM101.025 466.308C103.362 468.063 105.724 469.773 108.106 471.439C108.053 471.509 106.691 470.662 102.994 467.907C102.338 467.379 101.675 466.841 101.025 466.308ZM333.531 511.087C333.92 510.921 334.982 510.561 335.75 510.279C336.665 510.251 356.541 503.362 346.464 506.942C345.016 507.5 335.952 510.328 333.531 511.087ZM341.22 14.4265C338.868 13.627 336.527 12.8685 334.173 12.1429C337.81 13.1856 341.453 14.3169 345.051 15.5226C343.774 15.1464 342.504 14.7833 341.22 14.4265ZM9.3195 196.404C9.58531 195.389 8.77576 198.78 9.8088 194.776C9.06306 197.771 8.4184 200.553 7.79026 203.494C7.55741 204.364 7.32703 205.245 7.103 206.119C6.97497 206.81 6.84672 207.516 6.72426 208.209C6.7626 207.786 6.79341 207.408 6.83778 206.963C8.01899 202.03 8.17665 200.879 9.3195 196.404ZM85.8915 69.1849C86.6311 68.6455 81.2752 73.6521 86.6026 68.7907C85.6382 69.7632 84.0268 71.2603 80.9864 74.1846C80.4797 74.6346 79.9758 75.086 79.4725 75.54C79.4565 75.6576 78.6926 76.4294 77.0542 78.1427C77.0527 78.1441 77.0512 78.1455 77.0496 78.1469C72.5485 82.7129 72.8377 82.4595 71.6845 83.4922C76.4123 78.6167 76.5057 78.4252 79.7607 75.1305C82.0045 72.8755 85.0664 70.0685 85.8915 69.1849ZM311.753 516.392C316.428 515.334 312.219 516.195 320.55 514.411C320.02 514.558 319.488 514.705 318.957 514.849C316.568 515.397 314.145 515.916 311.753 516.392ZM104.347 54.3153C103.805 54.5074 100.147 57.1767 99.7155 57.8739C103.213 55.1956 101.423 56.3979 104.347 54.3153ZM1.00971 266.222C0.973069 264.02 0.984142 262.491 1.0048 261.5C1.05958 259.196 1.14538 259.799 1.2106 261.5C1.22622 261.89 1.24166 262.337 1.25686 262.819C1.2258 263.359 1.19635 263.899 1.16865 264.427C1.2004 265.916 1.24471 267.402 1.30119 268.884C1.19967 267.999 1.10235 267.111 1.00971 266.222ZM242.135 2.2669C235.679 2.85024 249.125 1.86148 244.609 2.23996C240.997 2.51237 236.264 2.83124 238.045 2.59724C239.288 2.48631 240.675 2.37284 242.122 2.26779C242.126 2.26749 242.13 2.2672 242.135 2.2669ZM205.084 7.65672C206.152 7.55993 204.642 7.81595 209.651 6.76613C211.055 6.40961 222.523 4.51062 217.694 5.22148C213.588 5.90953 209.32 6.72852 205.084 7.65672ZM21.0973 361.517C21.0467 361.627 17.6224 353.366 17.2864 352.258C17.2864 352.258 17.2863 352.258 17.2862 352.258C16.2672 349.327 19.6262 358.153 18.2717 354.286C21.4529 362.77 22.8769 365.107 22.3116 364.664C20.1998 359.755 21.2618 362.057 21.0973 361.517ZM518.7 295.59C518.701 295.586 518.701 295.582 518.702 295.578C518.634 296.177 517.852 301.048 517.905 300.449C518.774 294.582 518.685 295.636 519.237 290.115C519.298 289.815 519.353 289.558 519.416 289.235C519.196 291.429 519.094 292.648 518.7 295.59ZM355.108 503.898C353.076 504.71 349.307 506.044 346.963 506.862C354.369 504.051 363.192 500.593 355.108 503.898ZM487.842 134.723C487.839 134.718 487.836 134.712 487.833 134.707C487.834 134.708 487.835 134.711 487.836 134.712C487.838 134.716 487.84 134.719 487.842 134.723ZM188.802 511.156C189.068 511.249 189.218 511.305 189.27 511.331C189.269 511.332 189.269 511.333 189.269 511.334C189.126 511.279 188.974 511.221 188.802 511.156ZM28.8802 378.387C30.4729 381.757 24.8128 370.706 23.2889 366.987C23.4348 367.229 23.481 367.257 23.785 367.837C24.9969 370.845 28.5898 377.838 28.8802 378.387ZM49.7771 110.098C44.1132 118.108 51.2247 107.495 51.7757 107.247C51.764 107.263 49.9204 109.889 49.7771 110.098ZM4.79551 305.205C4.30599 302.75 5.0511 307.72 3.83445 299.774C3.78978 299.31 3.74643 298.846 3.70422 298.381C4.03566 300.647 4.40113 302.933 4.79551 305.205ZM18.7397 166.217C14.2272 177.735 11.0645 189.154 13.6748 181.526C13.9548 180.633 14.2438 179.73 14.5332 178.841C14.4665 178.669 15.5982 175.417 17.3641 170.689C17.5665 169.994 18.5574 167.373 18.7139 166.87C19.0096 165.894 17.7855 168.873 18.7397 166.217ZM449.191 82.0189C449.038 81.8894 448.889 81.7634 448.736 81.6342C447.368 80.2403 445.98 78.8583 444.582 77.496C444.833 77.6903 445.085 77.8858 445.336 78.0812C446.634 79.3792 447.912 80.6846 449.182 82.0098C449.185 82.0128 449.188 82.0158 449.191 82.0189ZM91.5559 458.878C92.5701 459.418 89.4995 456.979 83.5931 451.65C86.1942 454.11 88.8554 456.526 91.5559 458.878ZM151.835 25.2803C152.096 25.2316 152.353 25.1848 152.624 25.1321C156.439 23.3234 155.701 23.5869 153.816 24.3363C153.15 24.6503 152.498 24.961 151.835 25.2803ZM209.545 6.39751C207.831 6.73032 208.714 6.60612 208.535 6.64104C204.176 7.52691 203.554 7.62544 198.283 8.94593C197.64 9.11926 197.01 9.29295 196.369 9.47141C198.835 8.99258 200.576 8.45552 205.8 7.39394C204.851 7.55107 203.907 7.71248 202.96 7.87972C205.848 7.23185 208.752 6.6325 211.645 6.0869C211.986 6.00659 212.329 5.92696 212.671 5.84799C211.634 6.02375 210.566 6.20997 209.545 6.39751ZM464.013 99.0543C465.808 101.302 467.573 103.592 469.294 105.9C469.384 105.964 469.471 106.024 469.561 106.088C467.754 103.714 465.899 101.363 464.013 99.0543ZM140.389 491.919C140.596 492.014 140.799 492.106 140.98 492.187C140.956 492.191 140.729 492.086 140.389 491.919ZM519.762 288.057C520.12 284.83 520.483 280.144 520.685 276.554C520.617 276.843 519.989 285.914 519.557 289.074C519.517 289.587 519.611 289.434 519.762 288.057ZM1.06872 254.456C1.04827 253.637 1.03181 252.819 1.01848 252.012C1.09388 250.039 1.19071 248.079 1.31223 246.077C1.28115 246.016 1.24974 245.957 1.2187 245.896C0.812105 254.653 0.855809 252.617 0.644273 256.963C0.781836 256.12 0.923058 255.294 1.06872 254.456ZM507.839 178.922C505.788 172.93 504.923 170.869 506.045 174.247C506.816 176.34 507.564 178.458 508.282 180.576C508.135 180.021 507.986 179.465 507.839 178.922ZM250.824 521.406C255.969 521.542 256.188 521.672 261 521.63C261.13 521.628 261.263 521.626 261.399 521.624C261.266 521.623 261.133 521.622 261 521.621C258.345 521.596 255.7 521.532 253.077 521.429C252.331 521.425 251.568 521.417 250.824 521.406ZM36.6195 393.888C37.7192 395.834 40.0508 399.318 43.364 404.662C44.232 405.885 44.7945 406.636 45.5598 407.675C45.9366 408.325 46.3738 409.059 46.7371 409.677C46.7395 409.68 46.7419 409.684 46.7442 409.687C50.0344 414.351 47.9663 411.281 48.0851 411.355C48.1329 411.396 50.5694 414.857 49.8396 413.752C48.5419 411.874 43.6959 404.849 43.7992 404.756C45.4023 407.282 48.7911 412.062 47.8576 410.6C46.8244 409.009 43.6162 404.526 41.7918 401.526C44.3622 405.855 38.8005 397.072 38.3455 395.965C35.1491 390.781 37.9031 395.651 41.2633 400.931C39.1378 397.758 42.1827 402.481 42.6276 403.295C40.3534 400.073 33.5451 388.401 36.6195 393.888ZM42.183 120.47C39.8832 124.005 36.4377 129.621 35.0916 132.176C34.2932 133.655 37.6332 127.965 35.4202 131.94C37.4688 128.384 37.9477 127.581 37.5231 128.144C37.9959 127.337 38.4787 126.524 38.9618 125.721C39.1996 125.358 39.4442 124.987 39.6838 124.626C39.9188 124.193 40.1567 123.758 40.388 123.336C40.9215 122.497 41.4659 121.651 42.009 120.818C42.0602 120.712 42.1579 120.537 42.183 120.47ZM395.985 483.872C394.987 484.481 393.995 485.076 392.988 485.671C393.108 485.62 393.249 485.557 393.385 485.496C393.483 485.454 393.581 485.412 393.679 485.37C393.078 485.685 388.218 488.408 386.174 489.571C385.149 490.157 387.558 488.97 383.162 491.355C386.356 489.647 389.293 487.989 392.326 486.205C392.067 486.388 391.819 486.565 391.56 486.748C391.561 486.747 391.563 486.746 391.565 486.745C392.58 486.162 393.603 485.566 394.609 484.97C395.072 484.604 395.525 484.242 395.985 483.872ZM148.68 26.6235C145.104 28.4058 143.932 29.0526 145.656 28.2851C145.66 28.2833 145.664 28.2815 145.668 28.2797C146.983 27.5849 148.308 26.8996 149.631 26.2295C149.317 26.3587 149.004 26.488 148.68 26.6235ZM171.688 506.086C179.758 508.697 161.78 502.236 165.156 503.583C165.299 503.663 170.944 505.796 171.688 506.086ZM0.940068 267.784C0.888254 265.7 0.861051 263.605 0.858685 261.5C0.858407 261.253 0.858472 261.006 0.858878 260.759C0.839718 261.004 0.820921 261.252 0.802477 261.5C0.780215 261.8 0.758469 262.1 0.737167 262.396C0.78648 264.196 0.854365 265.994 0.940068 267.784ZM497.856 153.229C496.937 150.957 494.225 145.263 492.711 142.58C493.44 144.023 494.156 145.474 494.859 146.931C493.501 144.19 492.111 141.508 490.65 138.802C490.456 138.72 492.225 141.791 494.558 146.599C494.933 147.342 497.066 152.167 497.915 153.785C498.098 154.104 495.746 149.003 497.456 152.514C496.744 150.961 496.114 149.633 495.413 148.177C495.389 148.058 495.365 147.94 495.336 147.811C496.201 149.615 497.034 151.408 497.856 153.229ZM29.8665 141.69C27.2096 146.836 26.9856 147.528 26.532 148.648C27.6938 146.215 28.893 143.802 30.1277 141.412C30.038 141.51 29.9562 141.592 29.8665 141.69ZM471.792 108.588C469.933 106.02 470.674 107.161 469.904 106.144C466.973 102.311 464.981 99.6893 461.934 96.0292C462.145 96.2641 462.34 96.4801 462.543 96.7069C462.541 96.7037 462.538 96.7005 462.535 96.6972C447.868 79.5486 455.675 88.4743 464.23 98.9125C464.407 99.176 464.575 99.4303 464.75 99.6943C468.554 104.386 471.844 108.884 471.792 108.588ZM105.567 470.347C105.765 470.512 103.938 469.301 107.274 471.701C109.995 473.491 105.636 470.414 104.613 469.55C105.511 470.208 106.431 470.873 107.328 471.511C102.011 467.523 101.258 466.904 103.102 468.484C103.233 468.598 105.369 470.183 105.567 470.347ZM142.596 493.487C143.5 493.718 136.038 489.903 136.281 490.083C137.299 490.643 138.107 491.034 139.184 491.625C140.272 492.219 140.525 492.42 142.596 493.487ZM4.59921 306.891C4.63776 307.135 4.98429 309.582 5.01676 309.327C4.61547 306.3 3.54803 300.216 3.65654 301.291C3.97172 303.311 4.21726 304.651 4.59897 306.891C4.59905 306.891 4.59913 306.891 4.59921 306.891ZM511.195 188.999C511.184 188.877 509.444 182.979 509.146 182.228C508.907 181.615 508.764 181.318 508.572 180.863C509.692 184.088 511.573 190.675 511.192 188.987C511.193 188.991 511.194 188.995 511.195 188.999Z" fill="#FACD72"/>
</svg>
