<svg width="19" height="23" viewBox="0 0 19 23" fill="none" xmlns="http://www.w3.org/2000/svg">
<path fill-rule="evenodd" clip-rule="evenodd" d="M9.05778 1.04373C8.95108 1.09954 8.5038 1.46477 8.06372 1.85535C6.30251 3.41883 4.03417 4.44376 1.7022 4.72981C0.127701 4.92292 0.0493588 5.01723 0.00456157 6.77293C-0.0373954 8.41561 0.130106 10.6272 0.384768 11.7945C1.12413 15.1826 3.20494 18.5468 5.94854 20.7898C7.05876 21.6974 8.89347 22.8476 9.33733 22.9143C9.73927 22.9747 10.1742 22.7847 11.3512 22.0349C15.0378 19.6859 17.7267 15.8898 18.6196 11.7735C19.011 9.96868 19.1374 5.74593 18.8137 5.28673C18.6012 4.98541 18.1652 4.82098 17.3077 4.71896C14.9781 4.44169 12.6835 3.41105 10.9261 1.85248C9.86723 0.913424 9.56053 0.780659 9.05778 1.04373ZM14.0707 8.69994C14.456 9.00981 14.6422 9.22654 14.6423 9.36509C14.6425 9.67267 9.15206 15.4051 8.82421 15.4397C8.62094 15.4611 8.2828 15.1718 6.73692 13.6531C5.72232 12.6565 4.87702 11.778 4.85843 11.701C4.81261 11.5108 5.8999 10.5001 6.15053 10.5C6.26173 10.4999 6.8129 10.8755 7.40704 11.3561C8.02097 11.8527 8.55109 12.2123 8.66898 12.2122C8.80463 12.2122 9.58202 11.551 11.0042 10.2263C12.2647 9.05213 13.2102 8.24054 13.3177 8.24047C13.4176 8.24041 13.7565 8.44721 14.0707 8.69994Z" fill="#FCD16E"/>
</svg>
