<svg width="70" height="70" viewBox="0 0 70 70" fill="none" xmlns="http://www.w3.org/2000/svg">
<circle cx="35" cy="35" r="35" fill="#5AB206"/>
<path fill-rule="evenodd" clip-rule="evenodd" d="M46.8154 22.828C46.6468 22.8783 46.4243 22.9641 46.321 23.0187C46.2177 23.0734 42.8026 26.6412 38.732 30.9473L31.3309 38.7765L28.5235 35.8148C25.9994 33.1521 25.6773 32.8332 25.3318 32.6558C24.625 32.2927 23.776 32.3391 23.1276 32.7762C22.9836 32.8733 22.52 33.3226 22.0974 33.7746C21.1094 34.8314 21.0045 35.0427 21.0045 35.9768C21.0045 37.0789 20.6668 36.6489 25.8545 42.1521C29.3324 45.8417 30.4356 46.9769 30.6572 47.0942C31.0471 47.3005 31.5369 47.3021 31.9401 47.0983C32.1763 46.9789 33.9408 45.1381 41.34 37.2918C51.663 26.3451 50.7278 27.4393 50.7281 26.3083C50.7285 25.3868 50.6209 25.1737 49.5993 24.0721C48.9438 23.3653 48.7407 23.1851 48.3983 23.0059C47.9005 22.7454 47.314 22.6795 46.8154 22.828Z" fill="white"/>
</svg>
